# xmcd
# Track frame offsets:
# 150
# 18027
# 30222
# 45200
# 59190
# 73192
# 90762
# 103522
# 117385
# 126737
# 138780
# 154902
# 177487
# 193600
#
# Disc length: 2753 seconds
# Revision: 0
# Processed by: cddbd v1.4PL0 Copyright (c) Steve Scherf et al.
# Submitted via: VisiTrax 2.9.2.167 - For more info visit www.synapsa.com
#
DISCID=b80abf0e
DTITLE=Various Artist - Mr. Music Country
DYEAR=1900
DGENRE=
TTITLE0=Marty Stuart - Me and Hank and Jumpin' Jack Flash
TTITLE1=Hank Williams - Move it on over
TTITLE2=Merle Haggard - The Way it was in '51
TTITLE3=Moe Bandy - Hank Williams You wrote my life
TTITLE4=Frank Dycus - Hank Williams Blues
TTITLE5=Karen Tobin - My Sweet Love Ain't Around
TTITLE6=Waylon Jennings - Are You Sure Hank Done it This Way
TTITLE7=David Allan Coe - The Ride
TTITLE8=Connie Smith - I Saw The Light
TTITLE9=Vernon Oxford - House Of Gold
TTITLE10=Lawrence Reynolds - Them Old Hank Williams' Songs
TTITLE11=Conway Twitty - Medley: Cold, cold heart/I can't help it/You win again
TTITLE11=/they'll never take her love from me/Wedding bells/take these chains f
TTITLE11=rom my heart/Your cheatin' heart
TTITLE12=George Jones - A Picture from life's other side
TTITLE13=Hank Williams JR. - If you don't like Hank Williams
EXTD=CD- Mr. Music Country
EXTT0=
EXTT1=
EXTT2=
EXTT3=
EXTT4=
EXTT5=
EXTT6=
EXTT7=
EXTT8=
EXTT9=
EXTT10=
EXTT11=
EXTT12=
EXTT13=
PLAYORDER=
